<svg width="321" height="321" viewBox="0 0 321 321" fill="none" xmlns="http://www.w3.org/2000/svg">
<path d="M58.5134 277.95C48.9386 281.43 39.6569 272.148 43.1366 262.573L57.5794 222.83C59.954 216.296 56.2964 209.117 49.6144 207.198L8.9737 195.522C-0.817777 192.709 -2.87115 179.744 5.57188 174.043L40.6157 150.38C46.3775 146.49 47.6378 138.532 43.3603 133.052L17.3436 99.7174C11.0755 91.6863 17.0347 79.9903 27.2162 80.3409L69.4755 81.7961C76.4237 82.0353 82.1204 76.3384 81.8812 69.3901L80.4261 27.1295C80.0755 16.9478 91.7711 10.9884 99.802 17.2567L133.135 43.2741C138.616 47.5518 146.573 46.2914 150.464 40.5295L174.126 5.48462C179.827 -2.95865 192.791 -0.90519 195.604 8.88659L207.279 49.5284C209.199 56.2106 216.377 59.8683 222.911 57.4936L262.653 43.0504C272.227 39.5707 281.509 48.8526 278.029 58.4277L263.587 98.1702C261.212 104.705 264.87 111.883 271.552 113.803L312.192 125.478C321.984 128.291 324.037 141.256 315.594 146.957L280.55 170.62C274.788 174.51 273.528 182.468 277.806 187.949L303.822 221.283C310.091 229.314 304.131 241.01 293.95 240.659L251.69 239.204C244.742 238.965 239.046 244.662 239.285 251.61L240.74 293.871C241.091 304.053 229.395 310.012 221.364 303.744L188.031 277.726C182.55 273.449 174.593 274.709 170.702 280.471L147.04 315.516C141.339 323.959 128.375 321.905 125.562 312.114L113.887 271.472C111.967 264.79 104.789 261.132 98.2548 263.507L58.5134 277.95Z" fill="#EF4680"/>
</svg>
